<svg xmlns="http://www.w3.org/2000/svg" viewBox="0 0 32 32" width="32" height="32">
<path d="M5,9 h1 v1 h-1 Z M6,9 h1 v1 h-1 Z M7,9 h1 v1 h-1 Z M8,9 h1 v1 h-1 Z M4,10 h1 v1 h-1 Z M5,10 h1 v1 h-1 Z M6,10 h1 v1 h-1 Z M7,10 h1 v1 h-1 Z M8,10 h1 v1 h-1 Z M9,10 h1 v1 h-1 Z M3,11 h1 v1 h-1 Z M4,11 h1 v1 h-1 Z M5,11 h1 v1 h-1 Z M6,11 h1 v1 h-1 Z M7,11 h1 v1 h-1 Z M8,11 h1 v1 h-1 Z M9,11 h1 v1 h-1 Z M10,11 h1 v1 h-1 Z M3,12 h1 v1 h-1 Z M4,12 h1 v1 h-1 Z M5,12 h1 v1 h-1 Z M6,12 h1 v1 h-1 Z M7,12 h1 v1 h-1 Z M8,12 h1 v1 h-1 Z M9,12 h1 v1 h-1 Z M10,12 h1 v1 h-1 Z M3,13 h1 v1 h-1 Z M4,13 h1 v1 h-1 Z M5,13 h1 v1 h-1 Z M6,13 h1 v1 h-1 Z M7,13 h1 v1 h-1 Z M8,13 h1 v1 h-1 Z M9,13 h1 v1 h-1 Z M10,13 h1 v1 h-1 Z M3,14 h1 v1 h-1 Z M4,14 h1 v1 h-1 Z M5,14 h1 v1 h-1 Z M6,14 h1 v1 h-1 Z M7,14 h1 v1 h-1 Z M8,14 h1 v1 h-1 Z M9,14 h1 v1 h-1 Z M10,14 h1 v1 h-1 Z M3,15 h1 v1 h-1 Z M4,15 h1 v1 h-1 Z M5,15 h1 v1 h-1 Z M6,15 h1 v1 h-1 Z M7,15 h1 v1 h-1 Z M8,15 h1 v1 h-1 Z M9,15 h1 v1 h-1 Z M10,15 h1 v1 h-1 Z M3,16 h1 v1 h-1 Z M4,16 h1 v1 h-1 Z M5,16 h1 v1 h-1 Z M6,16 h1 v1 h-1 Z M7,16 h1 v1 h-1 Z M8,16 h1 v1 h-1 Z M9,16 h1 v1 h-1 Z M10,16 h1 v1 h-1 Z M3,17 h1 v1 h-1 Z M4,17 h1 v1 h-1 Z M5,17 h1 v1 h-1 Z M6,17 h1 v1 h-1 Z M7,17 h1 v1 h-1 Z M8,17 h1 v1 h-1 Z M9,17 h1 v1 h-1 Z M10,17 h1 v1 h-1 Z M3,18 h1 v1 h-1 Z M4,18 h1 v1 h-1 Z M5,18 h1 v1 h-1 Z M6,18 h1 v1 h-1 Z M7,18 h1 v1 h-1 Z M8,18 h1 v1 h-1 Z M9,18 h1 v1 h-1 Z M10,18 h1 v1 h-1 Z M3,19 h1 v1 h-1 Z M4,19 h1 v1 h-1 Z M5,19 h1 v1 h-1 Z M6,19 h1 v1 h-1 Z M7,19 h1 v1 h-1 Z M8,19 h1 v1 h-1 Z M9,19 h1 v1 h-1 Z M10,19 h1 v1 h-1 Z M4,20 h1 v1 h-1 Z M5,20 h1 v1 h-1 Z M6,20 h1 v1 h-1 Z M7,20 h1 v1 h-1 Z M8,20 h1 v1 h-1 Z M9,20 h1 v1 h-1 Z M5,21 h1 v1 h-1 Z M6,21 h1 v1 h-1 Z M7,21 h1 v1 h-1 Z M8,21 h1 v1 h-1 Z " fill="#00E054" opacity="0.9" />
<path d="M14,9 h1 v1 h-1 Z M15,9 h1 v1 h-1 Z M16,9 h1 v1 h-1 Z M17,9 h1 v1 h-1 Z M13,10 h1 v1 h-1 Z M14,10 h1 v1 h-1 Z M15,10 h1 v1 h-1 Z M16,10 h1 v1 h-1 Z M17,10 h1 v1 h-1 Z M18,10 h1 v1 h-1 Z M12,11 h1 v1 h-1 Z M13,11 h1 v1 h-1 Z M14,11 h1 v1 h-1 Z M15,11 h1 v1 h-1 Z M16,11 h1 v1 h-1 Z M17,11 h1 v1 h-1 Z M18,11 h1 v1 h-1 Z M19,11 h1 v1 h-1 Z M12,12 h1 v1 h-1 Z M13,12 h1 v1 h-1 Z M14,12 h1 v1 h-1 Z M15,12 h1 v1 h-1 Z M16,12 h1 v1 h-1 Z M17,12 h1 v1 h-1 Z M18,12 h1 v1 h-1 Z M19,12 h1 v1 h-1 Z M12,13 h1 v1 h-1 Z M13,13 h1 v1 h-1 Z M14,13 h1 v1 h-1 Z M15,13 h1 v1 h-1 Z M16,13 h1 v1 h-1 Z M17,13 h1 v1 h-1 Z M18,13 h1 v1 h-1 Z M19,13 h1 v1 h-1 Z M12,14 h1 v1 h-1 Z M13,14 h1 v1 h-1 Z M14,14 h1 v1 h-1 Z M15,14 h1 v1 h-1 Z M16,14 h1 v1 h-1 Z M17,14 h1 v1 h-1 Z M18,14 h1 v1 h-1 Z M19,14 h1 v1 h-1 Z M12,15 h1 v1 h-1 Z M13,15 h1 v1 h-1 Z M14,15 h1 v1 h-1 Z M15,15 h1 v1 h-1 Z M16,15 h1 v1 h-1 Z M17,15 h1 v1 h-1 Z M18,15 h1 v1 h-1 Z M19,15 h1 v1 h-1 Z M12,16 h1 v1 h-1 Z M13,16 h1 v1 h-1 Z M14,16 h1 v1 h-1 Z M15,16 h1 v1 h-1 Z M16,16 h1 v1 h-1 Z M17,16 h1 v1 h-1 Z M18,16 h1 v1 h-1 Z M19,16 h1 v1 h-1 Z M12,17 h1 v1 h-1 Z M13,17 h1 v1 h-1 Z M14,17 h1 v1 h-1 Z M15,17 h1 v1 h-1 Z M16,17 h1 v1 h-1 Z M17,17 h1 v1 h-1 Z M18,17 h1 v1 h-1 Z M19,17 h1 v1 h-1 Z M12,18 h1 v1 h-1 Z M13,18 h1 v1 h-1 Z M14,18 h1 v1 h-1 Z M15,18 h1 v1 h-1 Z M16,18 h1 v1 h-1 Z M17,18 h1 v1 h-1 Z M18,18 h1 v1 h-1 Z M19,18 h1 v1 h-1 Z M12,19 h1 v1 h-1 Z M13,19 h1 v1 h-1 Z M14,19 h1 v1 h-1 Z M15,19 h1 v1 h-1 Z M16,19 h1 v1 h-1 Z M17,19 h1 v1 h-1 Z M18,19 h1 v1 h-1 Z M19,19 h1 v1 h-1 Z M13,20 h1 v1 h-1 Z M14,20 h1 v1 h-1 Z M15,20 h1 v1 h-1 Z M16,20 h1 v1 h-1 Z M17,20 h1 v1 h-1 Z M18,20 h1 v1 h-1 Z M14,21 h1 v1 h-1 Z M15,21 h1 v1 h-1 Z M16,21 h1 v1 h-1 Z M17,21 h1 v1 h-1 Z " fill="#FF8000" opacity="0.9" />
<path d="M23,9 h1 v1 h-1 Z M24,9 h1 v1 h-1 Z M25,9 h1 v1 h-1 Z M26,9 h1 v1 h-1 Z M22,10 h1 v1 h-1 Z M23,10 h1 v1 h-1 Z M24,10 h1 v1 h-1 Z M25,10 h1 v1 h-1 Z M26,10 h1 v1 h-1 Z M27,10 h1 v1 h-1 Z M21,11 h1 v1 h-1 Z M22,11 h1 v1 h-1 Z M23,11 h1 v1 h-1 Z M24,11 h1 v1 h-1 Z M25,11 h1 v1 h-1 Z M26,11 h1 v1 h-1 Z M27,11 h1 v1 h-1 Z M28,11 h1 v1 h-1 Z M21,12 h1 v1 h-1 Z M22,12 h1 v1 h-1 Z M23,12 h1 v1 h-1 Z M24,12 h1 v1 h-1 Z M25,12 h1 v1 h-1 Z M26,12 h1 v1 h-1 Z M27,12 h1 v1 h-1 Z M28,12 h1 v1 h-1 Z M21,13 h1 v1 h-1 Z M22,13 h1 v1 h-1 Z M23,13 h1 v1 h-1 Z M24,13 h1 v1 h-1 Z M25,13 h1 v1 h-1 Z M26,13 h1 v1 h-1 Z M27,13 h1 v1 h-1 Z M28,13 h1 v1 h-1 Z M21,14 h1 v1 h-1 Z M22,14 h1 v1 h-1 Z M23,14 h1 v1 h-1 Z M24,14 h1 v1 h-1 Z M25,14 h1 v1 h-1 Z M26,14 h1 v1 h-1 Z M27,14 h1 v1 h-1 Z M28,14 h1 v1 h-1 Z M21,15 h1 v1 h-1 Z M22,15 h1 v1 h-1 Z M23,15 h1 v1 h-1 Z M24,15 h1 v1 h-1 Z M25,15 h1 v1 h-1 Z M26,15 h1 v1 h-1 Z M27,15 h1 v1 h-1 Z M28,15 h1 v1 h-1 Z M21,16 h1 v1 h-1 Z M22,16 h1 v1 h-1 Z M23,16 h1 v1 h-1 Z M24,16 h1 v1 h-1 Z M25,16 h1 v1 h-1 Z M26,16 h1 v1 h-1 Z M27,16 h1 v1 h-1 Z M28,16 h1 v1 h-1 Z M21,17 h1 v1 h-1 Z M22,17 h1 v1 h-1 Z M23,17 h1 v1 h-1 Z M24,17 h1 v1 h-1 Z M25,17 h1 v1 h-1 Z M26,17 h1 v1 h-1 Z M27,17 h1 v1 h-1 Z M28,17 h1 v1 h-1 Z M21,18 h1 v1 h-1 Z M22,18 h1 v1 h-1 Z M23,18 h1 v1 h-1 Z M24,18 h1 v1 h-1 Z M25,18 h1 v1 h-1 Z M26,18 h1 v1 h-1 Z M27,18 h1 v1 h-1 Z M28,18 h1 v1 h-1 Z M21,19 h1 v1 h-1 Z M22,19 h1 v1 h-1 Z M23,19 h1 v1 h-1 Z M24,19 h1 v1 h-1 Z M25,19 h1 v1 h-1 Z M26,19 h1 v1 h-1 Z M27,19 h1 v1 h-1 Z M28,19 h1 v1 h-1 Z M22,20 h1 v1 h-1 Z M23,20 h1 v1 h-1 Z M24,20 h1 v1 h-1 Z M25,20 h1 v1 h-1 Z M26,20 h1 v1 h-1 Z M27,20 h1 v1 h-1 Z M23,21 h1 v1 h-1 Z M24,21 h1 v1 h-1 Z M25,21 h1 v1 h-1 Z M26,21 h1 v1 h-1 Z " fill="#40BCF4" opacity="0.9" />
</svg>